PathFileType	3	(X/Y/Z)	C:\Users\koon_\Desktop\
DataRate	CameraRate	NumFrames	NumMarkers	Units	OrigDataRate	OrigDataStartFrame	OrigNumFrames
100.0	100.0	5	27	mm	100.0	1854	3706	
Frame#	Time	GM:LFHD			GM:RFHD			GM:LBHD			GM:RBHD			GM:C7			GM:T10			GM:CLAV			GM:STRN			GM:RBAK			GM:LSHO			GM:LUPA			GM:LELB			GM:LFRA			GM:LWRA			GM:LWRB			GM:LFIN			GM:RSHO			GM:RUPA			GM:RELB			GM:RFRA			GM:RWRA			GM:RWRB			GM:RFIN			GM:LASI			GM:RASI			GM:LPSI			GM:RPSI			
		X1	Y1	Z1	X2	Y2	Z2	X3	Y3	Z3	X4	Y4	Z4	X5	Y5	Z5	X6	Y6	Z6	X7	Y7	Z7	X8	Y8	Z8	X9	Y9	Z9	X10	Y10	Z10	X11	Y11	Z11	X12	Y12	Z12	X13	Y13	Z13	X14	Y14	Z14	X15	Y15	Z15	X16	Y16	Z16	X17	Y17	Z17	X18	Y18	Z18	X19	Y19	Z19	X20	Y20	Z20	X21	Y21	Z21	X22	Y22	Z22	X23	Y23	Z23	X24	Y24	Z24	X25	Y25	Z25	X26	Y26	Z26	X27	Y27	Z27	
1854	18.53	55.784866	1607.4504	-61.164356	-97.758385	1594.8256	-71.144135	66.095009	1591.7155	-193.34584	-97.165688	1580.8782	-186.5085	-2.2075326	1423.2725	-239.01266	8.8760519	1228.4664	-285.96939	5.0165324	1359.8229	-82.433861	12.904034	1211.8987	-40.016571	-81.427635	1302.028	-292.73746	160.0354	1412.5693	-171.64734	258.23309	1379.9689	-173.37978	429.91492	1283.3329	-234.30544	431.12579	1168.5046	-129.6942	453.884	1110.9851	-91.197365	518.06378	1130.3231	-96.567596	481.91879	1057.421	-31.454802	-162.5797	1400.9336	-179.24232	-342.36914	1328.1008	-146.14265	-436.08563	1276.5691	-141.21437	-403.17514	1358.2618	-97.938988	-421.6796	1443.5669	-7.1372008	-480.00858	1425.4987	5.5163245	-441.42966	1516.0634	39.848568	153.186	901.09741	-78.971939	-138.89352	908.19238	-74.992264	73.877747	954.06171	-287.11426	-63.366844	945.91888	-287.19946
1855	18.54	55.717606	1607.2551	-60.571522	-97.828896	1594.8082	-70.512733	66.006096	1591.7411	-192.72778	-97.3125	1581.071	-185.78534	-2.4250205	1423.2604	-238.66847	8.7935781	1228.5081	-285.62982	4.8728013	1359.9087	-82.073814	12.775066	1212.073	-39.823162	-81.482773	1301.7067	-292.17661	159.95107	1412.7174	-171.35039	258.11047	1379.7272	-173.33682	429.16422	1282.4238	-235.75775	430.3157	1164.5345	-134.49164	453.0282	1105.9152	-97.668488	517.30157	1125.2452	-102.66422	481.00098	1050.436	-39.828114	-162.45792	1401.4822	-179.61838	-342.87747	1330.5287	-147.36615	-436.90182	1279.5057	-141.7086	-404.59888	1362.7688	-101.81548	-423.18774	1451.6108	-14.623208	-481.60321	1433.9719	-0.97939312	-442.84387	1526.2885	29.021412	153.24252	901.104	-78.974274	-138.79808	908.19928	-74.956863	73.948387	954.14789	-287.01099	-63.284122	945.9903	-287.1283
1856	18.55	55.714108	1607.076	-59.896187	-97.874084	1594.8508	-69.769409	65.874786	1591.7532	-192.12975	-97.383575	1581.2114	-185.10478	-2.6207001	1423.2423	-238.30383	8.651371	1228.5356	-285.33771	4.6265683	1359.9674	-81.788902	12.632018	1212.2292	-39.568573	-81.599998	1301.389	-291.47549	159.93628	1412.8695	-170.98126	258.02832	1379.499	-173.28941	428.33276	1281.7067	-237.16699	430.32047	1160.7933	-138.38135	452.17627	1101.1532	-104.15484	516.43665	1120.5099	-108.92474	480.24808	1043.9679	-48.316612	-162.29398	1402.0215	-180.02773	-343.4447	1332.8627	-148.6144	-437.71658	1282.3759	-142.35617	-405.1647	1366.9537	-105.68226	-424.58173	1459.3625	-22.206688	-482.75269	1442.3267	-7.8865776	-444.10483	1535.9417	17.680664	153.27611	901.04358	-78.868416	-138.75487	908.20459	-74.957474	74.063255	954.2085	-286.89548	-63.23204	946.09485	-287.03979
1857	18.56	55.738777	1606.9142	-59.182941	-97.915367	1594.8809	-69.034081	65.849419	1591.7198	-191.42865	-97.440491	1581.3973	-184.3904	-2.7915504	1423.2162	-237.96179	8.5038586	1228.5726	-284.93564	4.4721975	1360.1187	-81.506508	12.496763	1212.4144	-39.185474	-81.627869	1301.0313	-290.80475	159.85951	1413.0715	-170.52065	257.91745	1379.3018	-173.18459	427.60547	1280.9678	-238.85344	428.62823	1157.5026	-144.19472	451.23181	1096.7112	-110.80992	515.59906	1116.1128	-115.19592	479.173	1037.7744	-56.742973	-162.09689	1402.5737	-180.44321	-343.89786	1335.1465	-149.84819	-438.52246	1285.0604	-142.96503	-406.38611	1370.9001	-109.79679	-425.64612	1466.5768	-30.068903	-483.76385	1450.2443	-15.029249	-445.1405	1544.8265	6.0041885	153.2933	900.95453	-78.660683	-138.7674	908.18964	-74.92968	74.140625	954.2804	-286.81061	-63.176342	946.18976	-286.98956
1858	18.57	55.777416	1606.7284	-58.452549	-97.835457	1594.9084	-68.236649	65.801147	1591.7577	-190.64819	-97.478043	1581.6021	-183.63794	-2.9126561	1423.2177	-237.59981	8.4211693	1228.6454	-284.66318	4.3014112	1360.2261	-81.315529	12.334532	1212.5973	-38.855755	-81.73909	1300.6956	-289.95233	159.83261	1413.3264	-170.13474	257.88593	1379.1238	-173.00403	426.82849	1280.3115	-240.4879	427.54956	1154.3513	-149.28008	450.34155	1092.6041	-117.64465	514.65546	1112.1316	-121.46743	478.42252	1031.9789	-65.394806	-161.87245	1403.1102	-180.8743	-344.30234	1337.3715	-151.21826	-439.21628	1287.7904	-143.73581	-406.73364	1374.332	-113.03737	-426.53583	1473.4459	-38.007065	-484.52249	1457.8489	-22.329491	-446.03931	1553.2178	-5.7356791	153.34589	900.66394	-78.287003	-138.72589	908.16852	-74.924507	74.183365	954.3526	-286.62967	-63.144951	946.26984	-286.93439
